<?xml version="1.0" standalone="no"?><!-- Generator: Gravit.io --><svg xmlns="http://www.w3.org/2000/svg" xmlns:xlink="http://www.w3.org/1999/xlink" style="isolation:isolate" viewBox="0 0 60.203 50.64" width="60.203" height="50.64"><g><path d=" M 60.203 38.515 L 39.752 50.64 L 39.752 25.296 L 60.203 13.195 L 60.203 38.515 Z " fill="rgb(0,139,178)"/><path d=" M 39.752 50.64 L 0 37.966 L 0 12.617 L 39.752 25.296 L 39.752 50.64 Z " fill="rgb(0,159,199)"/><path d=" M 39.752 25.296 L 0 12.617 L 20.452 0.516 L 60.203 13.195 L 39.752 25.296 Z " fill="rgb(24,191,223)"/><path d=" M 8.944 9.136 L 8.944 12.626 L 20.552 12.626 L 20.552 9.136 L 8.944 9.136 Z " fill="rgb(0,139,178)"/><path d=" M 20.552 12.626 C 20.552 14.065 17.953 15.232 14.748 15.232 C 11.542 15.232 8.944 14.065 8.944 12.626 C 8.944 11.187 11.542 10.02 14.748 10.02 C 17.953 10.02 20.552 11.187 20.552 12.626 Z " fill="rgb(0,139,178)"/><path d=" M 20.552 9.136 C 20.552 10.575 17.953 11.742 14.748 11.742 C 11.542 11.742 8.944 10.575 8.944 9.136 C 8.944 7.696 11.542 6.53 14.748 6.53 C 17.953 6.53 20.552 7.696 20.552 9.136 Z " fill="rgb(24,191,223)"/><path d=" M 19.386 2.606 L 19.386 6.097 L 30.994 6.097 L 30.994 2.606 L 19.386 2.606 Z " fill="rgb(0,139,178)"/><path d=" M 30.994 6.097 C 30.994 7.536 28.396 8.703 25.19 8.703 C 21.985 8.703 19.386 7.536 19.386 6.097 C 19.386 4.657 21.985 3.491 25.19 3.491 C 28.396 3.491 30.994 4.657 30.994 6.097 Z " fill="rgb(0,139,178)"/><path d=" M 30.994 2.606 C 30.994 4.045 28.396 5.212 25.19 5.212 C 21.985 5.212 19.386 4.045 19.386 2.606 C 19.386 1.167 21.985 0 25.19 0 C 28.396 0 30.994 1.167 30.994 2.606 Z " fill="rgb(24,191,223)"/><path d=" M 30.16 16.074 L 30.16 19.565 L 41.768 19.565 L 41.768 16.074 L 30.16 16.074 Z " fill="rgb(0,139,178)"/><path d=" M 41.768 19.565 C 41.768 21.004 39.169 22.171 35.964 22.171 C 32.759 22.171 30.16 21.004 30.16 19.565 C 30.16 18.126 32.759 16.959 35.964 16.959 C 39.169 16.959 41.768 18.126 41.768 19.565 Z " fill="rgb(0,139,178)"/><path d=" M 41.768 16.074 C 41.768 17.514 39.169 18.68 35.964 18.68 C 32.759 18.68 30.16 17.514 30.16 16.074 C 30.16 14.635 32.759 13.468 35.964 13.468 C 39.169 13.468 41.768 14.635 41.768 16.074 Z " fill="rgb(24,191,223)"/><path d=" M 40.22 9.996 L 40.22 13.487 L 51.828 13.487 L 51.828 9.996 L 40.22 9.996 Z " fill="rgb(0,139,178)"/><path d=" M 51.828 13.487 C 51.828 14.926 49.229 16.093 46.024 16.093 C 42.818 16.093 40.22 14.926 40.22 13.487 C 40.22 12.047 42.818 10.881 46.024 10.881 C 49.229 10.881 51.828 12.047 51.828 13.487 Z " fill="rgb(0,139,178)"/><path d=" M 51.828 9.996 C 51.828 11.436 49.229 12.602 46.024 12.602 C 42.818 12.602 40.22 11.436 40.22 9.996 C 40.22 8.557 42.818 7.39 46.024 7.39 C 49.229 7.39 51.828 8.557 51.828 9.996 Z " fill="rgb(24,191,223)"/></g></svg>